<?xml version="1.0" standalone="no"?>
<!DOCTYPE svg PUBLIC "-//W3C//DTD SVG 20010904//EN"
 "http://www.w3.org/TR/2001/REC-SVG-20010904/DTD/svg10.dtd">
<svg version="1.0" xmlns="http://www.w3.org/2000/svg"
 width="190.000000pt" height="178.000000pt" viewBox="0 0 190.000000 178.000000"
 preserveAspectRatio="xMidYMid meet">

<g transform="translate(0.000000,178.000000) scale(0.100000,-0.100000)"
fill="#000000" stroke="none">
<path d="M335 1311 c-9 -16 11 -46 54 -80 88 -70 171 -80 267 -31 72 36 133
95 116 112 -8 8 -21 2 -51 -25 -60 -54 -118 -81 -176 -81 -58 0 -100 20 -160
75 -25 23 -46 36 -50 30z"/>
<path d="M1114 1305 c-9 -23 47 -79 110 -110 95 -47 198 -25 296 63 35 32 42
43 33 53 -10 10 -20 5 -52 -24 -49 -45 -107 -74 -159 -83 -51 -8 -114 19 -176
76 -38 35 -47 40 -52 25z"/>
<path d="M576 949 c27 -140 91 -334 128 -384 12 -17 15 -16 52 8 60 40 152 60
219 48 60 -11 108 -33 142 -63 12 -11 26 -17 31 -14 20 12 86 187 115 303 17
68 29 125 26 127 -2 2 -36 -6 -75 -20 -191 -64 -427 -56 -626 21 -16 6 -17 3
-12 -26z"/>
</g>
</svg>
